<?xml version="1.0" encoding="UTF-8"?>
<svg xmlns="http://www.w3.org/2000/svg" xmlns:xlink="http://www.w3.org/1999/xlink" width="29.63pt" height="21pt" viewBox="0 0 29.63 21" version="1.1">
<defs>
<clipPath id="clip1">
  <path d="M 0 0 L 29.628906 0 L 29.628906 21 L 0 21 Z M 0 0 "/>
</clipPath>
</defs>
<g id="surface1">
<g clip-path="url(#clip1)" clip-rule="nonzero">
<path style=" stroke:none;fill-rule:nonzero;fill:rgb(13.699341%,12.199402%,12.5%);fill-opacity:1;" d="M 29.625 15 L 21.625 15 L 21.625 21 L 29.625 21 Z M 12.679688 9.480469 L 9.675781 9.480469 L 9.675781 11.410156 L 12.679688 11.410156 M 15.300781 9.480469 L 12.296875 9.480469 L 12.296875 11.410156 L 15.300781 11.410156 M 15.300781 9.480469 L 12.296875 9.480469 L 12.296875 11.410156 L 15.300781 11.410156 M 15.300781 9.480469 L 12.296875 9.480469 L 12.296875 11.410156 L 15.300781 11.410156 L 15.300781 19.125 L 20.300781 19.125 L 20.300781 17.199219 L 17.300781 17.199219 L 17.300781 3.691406 L 20.300781 3.691406 L 20.300781 1.761719 L 15.300781 1.761719 Z M 29.625 0 L 21.625 0 L 21.625 6 L 29.625 6 Z M 8 13.445313 L 0 13.445313 L 0 7.445313 L 8 7.445313 L 8 13.445313 "/>
</g>
</g>
</svg>
